<?xml version="1.0" encoding="UTF-8" standalone="no"?>
<!DOCTYPE svg PUBLIC "-//W3C//DTD SVG 1.1//EN"
 "http://www.w3.org/Graphics/SVG/1.1/DTD/svg11.dtd">
<!-- Generated by graphviz version 2.38.0 (20140413.2041)
 -->
<!-- Title: automaton_0 Pages: 1 -->
<svg width="218pt" height="600pt"
 viewBox="0.00 0.00 262.09 720.00" xmlns="http://www.w3.org/2000/svg" xmlns:xlink="http://www.w3.org/1999/xlink">
<g id="graph0" class="graph" transform="scale(0.800036 0.800036) rotate(0) translate(4 745.966)">
<title>automaton_0</title>
<!-- 0 -->
<g id="node1" class="node"><title>0</title>
<ellipse fill="white" stroke="black" cx="110.112" cy="-696.111" rx="45.7117" ry="45.7117"/>
<text text-anchor="middle" x="110.112" y="-706.635" font-family="Monospace" font-size="14.00">state 0</text>
<text text-anchor="middle" x="110.112" y="-692.635" font-family="Monospace" font-size="14.00">&quot;NFA:0&quot;</text>
<text text-anchor="middle" x="110.112" y="-678.635" font-family="Monospace" font-size="14.00">(⋆)</text>
</g>
<!-- 1 -->
<g id="node2" class="node"><title>1</title>
<ellipse fill="white" stroke="black" cx="110.112" cy="-526.4" rx="45.7117" ry="45.7117"/>
<text text-anchor="middle" x="110.112" y="-536.924" font-family="Monospace" font-size="14.00">state 1</text>
<text text-anchor="middle" x="110.112" y="-522.924" font-family="Monospace" font-size="14.00">&quot;NFA:1&quot;</text>
<text text-anchor="middle" x="110.112" y="-508.924" font-family="Monospace" font-size="14.00">(⋆)</text>
</g>
<!-- 0&#45;&gt;1 -->
<g id="edge1" class="edge"><title>0&#45;&gt;1</title>
<path fill="none" stroke="#1b9e77" d="M110.112,-650.167C110.112,-629.394 110.112,-604.528 110.112,-582.623"/>
<polygon fill="#1b9e77" stroke="#1b9e77" points="113.612,-582.467 110.112,-572.467 106.612,-582.467 113.612,-582.467"/>
<text text-anchor="middle" x="131.112" y="-621.055" font-family="Monospace" font-size="14.00" fill="#1b9e77">main()</text>
<text text-anchor="middle" x="131.112" y="-607.055" font-family="Monospace" font-size="14.00" fill="#1b9e77">(Entry)</text>
<text text-anchor="middle" x="131.112" y="-593.055" font-family="Monospace" font-size="14.00" fill="#1b9e77">«init»</text>
</g>
<!-- 1&#45;&gt;1 -->
<g id="edge3" class="edge"><title>1&#45;&gt;1</title>
<path fill="none" stroke="#7570b3" d="M154.281,-539.368C165.525,-538.515 173.967,-534.193 173.967,-526.4 173.967,-521.164 170.156,-517.494 164.245,-515.392"/>
<polygon fill="#7570b3" stroke="#7570b3" points="164.768,-511.928 154.281,-513.432 163.417,-518.796 164.768,-511.928"/>
<text text-anchor="middle" x="219.484" y="-529.2" font-family="Monospace" font-size="14.00" fill="#7570b3">lock_release(l)</text>
<text text-anchor="middle" x="219.484" y="-515.2" font-family="Monospace" font-size="14.00" fill="#7570b3">(Entry)</text>
</g>
<!-- 2 -->
<g id="node3" class="node"><title>2</title>
<ellipse fill="white" stroke="black" cx="53.1116" cy="-384.688" rx="45.7117" ry="45.7117"/>
<text text-anchor="middle" x="53.1116" y="-394.488" font-family="Monospace" font-size="14.00">state 2</text>
<text text-anchor="middle" x="53.1116" y="-380.488" font-family="Monospace" font-size="14.00">&quot;NFA:3&quot;</text>
<text text-anchor="middle" x="53.1116" y="-366.488" font-family="Monospace" font-size="14.00">(l)</text>
</g>
<!-- 1&#45;&gt;2 -->
<g id="edge2" class="edge"><title>1&#45;&gt;2</title>
<path fill="none" stroke="#d95f02" d="M85.9515,-487.32C81.4906,-479.329 77.1643,-470.812 73.7327,-462.544 70.7167,-455.277 68.022,-447.44 65.6549,-439.645"/>
<polygon fill="#d95f02" stroke="#d95f02" points="68.9625,-438.483 62.8324,-429.841 62.2357,-440.419 68.9625,-438.483"/>
<text text-anchor="middle" x="110.301" y="-451.344" font-family="Monospace" font-size="14.00" fill="#d95f02">«assertion»</text>
</g>
<!-- 3 -->
<g id="node4" class="node"><title>3</title>
<ellipse fill="white" stroke="black" cx="114.112" cy="-49.8556" rx="45.7232" ry="45.7232"/>
<ellipse fill="none" stroke="black" cx="114.112" cy="-49.8556" rx="49.7116" ry="49.7116"/>
<text text-anchor="middle" x="114.112" y="-60.3802" font-family="Monospace" font-size="14.00">state 3</text>
<text text-anchor="middle" x="114.112" y="-46.3802" font-family="Monospace" font-size="14.00">&quot;NFA:5&quot;</text>
<text text-anchor="middle" x="114.112" y="-32.3802" font-family="Monospace" font-size="14.00">(⋆)</text>
</g>
<!-- 1&#45;&gt;3 -->
<g id="edge5" class="edge"><title>1&#45;&gt;3</title>
<path fill="none" stroke="#e7298a" d="M135.562,-488.224C139.917,-480.094 143.783,-471.294 146.112,-462.544 185.522,-314.439 180.037,-267.168 146.112,-117.711 145.029,-112.943 143.563,-108.117 141.851,-103.356"/>
<polygon fill="#e7298a" stroke="#e7298a" points="144.969,-101.723 138.035,-93.7124 138.46,-104.299 144.969,-101.723"/>
<text text-anchor="middle" x="208.149" y="-309.633" font-family="Monospace" font-size="14.00" fill="#e7298a">main() == ⋆</text>
<text text-anchor="middle" x="208.149" y="-294.184" font-family="Monospace" font-size="14.00" fill="#e7298a">«cleanup»</text>
</g>
<!-- 4 -->
<g id="node5" class="node"><title>4</title>
<ellipse fill="white" stroke="black" cx="54.1116" cy="-219.272" rx="54.2235" ry="54.2235"/>
<text text-anchor="middle" x="54.1116" y="-229.072" font-family="Monospace" font-size="14.00">state 4</text>
<text text-anchor="middle" x="54.1116" y="-215.072" font-family="Monospace" font-size="14.00">&quot;NFA:2,4&quot;</text>
<text text-anchor="middle" x="54.1116" y="-201.072" font-family="Monospace" font-size="14.00">(l)</text>
</g>
<!-- 2&#45;&gt;4 -->
<g id="edge4" class="edge"><title>2&#45;&gt;4</title>
<path fill="none" stroke="#7570b3" d="M48.2706,-338.747C47.7769,-332.731 47.3554,-326.636 47.0774,-320.833 46.4986,-308.746 46.7455,-295.853 47.4144,-283.471"/>
<polygon fill="#7570b3" stroke="#7570b3" points="50.9246,-283.421 48.0666,-273.219 43.9387,-282.976 50.9246,-283.421"/>
<text text-anchor="middle" x="92.6287" y="-308.908" font-family="Monospace" font-size="14.00" fill="#7570b3">lock_release(l)</text>
<text text-anchor="middle" x="92.6287" y="-294.908" font-family="Monospace" font-size="14.00" fill="#7570b3">(Entry)</text>
</g>
<!-- 4&#45;&gt;3 -->
<g id="edge6" class="edge"><title>4&#45;&gt;3</title>
<path fill="none" stroke="#e7298a" d="M62.439,-165.719C65.761,-149.989 70.2143,-132.894 76.0364,-117.711 78.1199,-112.278 80.5967,-106.758 83.2729,-101.339"/>
<polygon fill="#e7298a" stroke="#e7298a" points="86.4398,-102.834 87.9304,-92.3447 80.2238,-99.6152 86.4398,-102.834"/>
<text text-anchor="middle" x="111.149" y="-135.96" font-family="Monospace" font-size="14.00" fill="#e7298a">main() == ⋆</text>
<text text-anchor="middle" x="111.149" y="-120.511" font-family="Monospace" font-size="14.00" fill="#e7298a">«cleanup»</text>
</g>
</g>
</svg>
