<?xml version="1.0" encoding="UTF-8" standalone="no"?>
<!DOCTYPE svg PUBLIC "-//W3C//DTD SVG 1.1//EN"
 "http://www.w3.org/Graphics/SVG/1.1/DTD/svg11.dtd">
<!-- Generated by graphviz version 2.38.0 (20140413.2041)
 -->
<!-- Title: compile Pages: 1 -->
<svg width="556pt" height="143pt"
 viewBox="0.00 0.00 556.17 143.00" xmlns="http://www.w3.org/2000/svg" xmlns:xlink="http://www.w3.org/1999/xlink">
<g id="graph0" class="graph" transform="scale(1 1) rotate(0) translate(4 139)">
<title>compile</title>
<polygon fill="white" stroke="none" points="-4,4 -4,-139 552.167,-139 552.167,4 -4,4"/>
<!-- src -->
<g id="node1" class="node"><title>src</title>
<path fill="none" stroke="black" d="M12,-36.5C12,-36.5 55.7139,-36.5 55.7139,-36.5 61.7139,-36.5 67.7139,-42.5 67.7139,-48.5 67.7139,-48.5 67.7139,-90.5 67.7139,-90.5 67.7139,-96.5 61.7139,-102.5 55.7139,-102.5 55.7139,-102.5 12,-102.5 12,-102.5 6,-102.5 0,-96.5 0,-90.5 0,-90.5 0,-48.5 0,-48.5 0,-42.5 6,-36.5 12,-36.5"/>
<text text-anchor="middle" x="33.8569" y="-87.3" font-family="Times,serif" font-size="14.00">C Source</text>
<polyline fill="none" stroke="black" points="0,-80.5 67.7139,-80.5 "/>
<text text-anchor="middle" x="33.8569" y="-65.3" font-family="Times,serif" font-size="14.00">...</text>
<polyline fill="none" stroke="black" points="0,-58.5 67.7139,-58.5 "/>
<text text-anchor="middle" x="33.8569" y="-43.3" font-family="Times,serif" font-size="14.00">C Source</text>
</g>
<!-- tesla -->
<g id="node2" class="node"><title>tesla</title>
<path fill="none" stroke="black" d="M115.714,-68.5C115.714,-68.5 166.824,-68.5 166.824,-68.5 172.824,-68.5 178.824,-74.5 178.824,-80.5 178.824,-80.5 178.824,-122.5 178.824,-122.5 178.824,-128.5 172.824,-134.5 166.824,-134.5 166.824,-134.5 115.714,-134.5 115.714,-134.5 109.714,-134.5 103.714,-128.5 103.714,-122.5 103.714,-122.5 103.714,-80.5 103.714,-80.5 103.714,-74.5 109.714,-68.5 115.714,-68.5"/>
<text text-anchor="middle" x="141.269" y="-119.3" font-family="Times,serif" font-size="14.00">Assertions</text>
<polyline fill="none" stroke="black" points="103.714,-112.5 178.824,-112.5 "/>
<text text-anchor="middle" x="141.269" y="-97.3" font-family="Times,serif" font-size="14.00">...</text>
<polyline fill="none" stroke="black" points="103.714,-90.5 178.824,-90.5 "/>
<text text-anchor="middle" x="141.269" y="-75.3" font-family="Times,serif" font-size="14.00">Assertions</text>
</g>
<!-- src&#45;&gt;tesla -->
<g id="edge1" class="edge"><title>src:s2&#45;&gt;tesla:s2</title>
<path fill="none" stroke="black" d="M67.7139,-69.5C84.94,-69.5 83.8919,-90.2207 93.9797,-98.3147"/>
<polygon fill="black" stroke="black" points="93.1212,-101.716 103.714,-101.5 95.2983,-95.0635 93.1212,-101.716"/>
</g>
<!-- bc -->
<g id="node4" class="node"><title>bc</title>
<path fill="none" stroke="black" d="M226.824,-0.5C226.824,-0.5 274.701,-0.5 274.701,-0.5 280.701,-0.5 286.701,-6.5 286.701,-12.5 286.701,-12.5 286.701,-54.5 286.701,-54.5 286.701,-60.5 280.701,-66.5 274.701,-66.5 274.701,-66.5 226.824,-66.5 226.824,-66.5 220.824,-66.5 214.824,-60.5 214.824,-54.5 214.824,-54.5 214.824,-12.5 214.824,-12.5 214.824,-6.5 220.824,-0.5 226.824,-0.5"/>
<text text-anchor="middle" x="250.763" y="-51.3" font-family="Times,serif" font-size="14.00">LLVM IR</text>
<polyline fill="none" stroke="black" points="214.824,-44.5 286.701,-44.5 "/>
<text text-anchor="middle" x="250.763" y="-29.3" font-family="Times,serif" font-size="14.00">...</text>
<polyline fill="none" stroke="black" points="214.824,-22.5 286.701,-22.5 "/>
<text text-anchor="middle" x="250.763" y="-7.3" font-family="Times,serif" font-size="14.00">LLVM IR</text>
</g>
<!-- src&#45;&gt;bc -->
<g id="edge2" class="edge"><title>src:s2&#45;&gt;bc:s2</title>
<path fill="none" stroke="black" d="M67.7139,-69.5C84.4441,-69.5 87.5413,-62.7837 103.714,-58.5 149.203,-46.4509 162.396,-35.1976 204.7,-33.6747"/>
<polygon fill="black" stroke="black" points="204.886,-37.1721 214.824,-33.5 204.765,-30.1731 204.886,-37.1721"/>
</g>
<!-- manifest -->
<g id="node3" class="node"><title>manifest</title>
<path fill="none" stroke="black" d="M271.529,-121.5C271.529,-121.5 229.997,-121.5 229.997,-121.5 223.997,-121.5 217.997,-115.5 217.997,-109.5 217.997,-109.5 217.997,-97.5 217.997,-97.5 217.997,-91.5 223.997,-85.5 229.997,-85.5 229.997,-85.5 271.529,-85.5 271.529,-85.5 277.529,-85.5 283.529,-91.5 283.529,-97.5 283.529,-97.5 283.529,-109.5 283.529,-109.5 283.529,-115.5 277.529,-121.5 271.529,-121.5"/>
<text text-anchor="middle" x="250.763" y="-99.3" font-family="Times,serif" font-size="14.00">Manifest</text>
</g>
<!-- tesla&#45;&gt;manifest -->
<g id="edge3" class="edge"><title>tesla:s2&#45;&gt;manifest</title>
<path fill="none" stroke="black" d="M178.824,-101.5C188.234,-101.5 198.343,-101.678 207.897,-101.928"/>
<polygon fill="black" stroke="black" points="207.889,-105.429 217.986,-102.222 208.093,-98.4319 207.889,-105.429"/>
</g>
<!-- instr -->
<g id="node5" class="node"><title>instr</title>
<path fill="none" stroke="black" d="M418.256,-86.5C418.256,-86.5 334.516,-86.5 334.516,-86.5 328.516,-86.5 322.516,-80.5 322.516,-74.5 322.516,-74.5 322.516,-62.5 322.516,-62.5 322.516,-56.5 328.516,-50.5 334.516,-50.5 334.516,-50.5 418.256,-50.5 418.256,-50.5 424.256,-50.5 430.256,-56.5 430.256,-62.5 430.256,-62.5 430.256,-74.5 430.256,-74.5 430.256,-80.5 424.256,-86.5 418.256,-86.5"/>
<text text-anchor="middle" x="376.386" y="-64.3" font-family="Times,serif" font-size="14.00">Instrumented IR</text>
</g>
<!-- manifest&#45;&gt;instr -->
<g id="edge4" class="edge"><title>manifest:e&#45;&gt;instr:n</title>
<path fill="none" stroke="black" d="M284.763,-103.5C322.225,-103.5 367.036,-124.309 375.109,-97.444"/>
<polygon fill="black" stroke="black" points="378.583,-97.8644 376.386,-87.5 371.64,-96.9727 378.583,-97.8644"/>
</g>
<!-- bc&#45;&gt;instr -->
<g id="edge5" class="edge"><title>bc:s2:e&#45;&gt;instr:s</title>
<path fill="none" stroke="black" d="M286.701,-33.5C323.236,-33.5 366.86,-13.5603 375.032,-39.4137"/>
<polygon fill="black" stroke="black" points="371.587,-40.0544 376.386,-49.5 378.525,-39.1233 371.587,-40.0544"/>
</g>
<!-- exe -->
<g id="node6" class="node"><title>exe</title>
<path fill="none" stroke="black" d="M536.215,-86.5C536.215,-86.5 478.022,-86.5 478.022,-86.5 472.022,-86.5 466.022,-80.5 466.022,-74.5 466.022,-74.5 466.022,-62.5 466.022,-62.5 466.022,-56.5 472.022,-50.5 478.022,-50.5 478.022,-50.5 536.215,-50.5 536.215,-50.5 542.215,-50.5 548.215,-56.5 548.215,-62.5 548.215,-62.5 548.215,-74.5 548.215,-74.5 548.215,-80.5 542.215,-86.5 536.215,-86.5"/>
<text text-anchor="middle" x="507.119" y="-64.3" font-family="Times,serif" font-size="14.00">Application</text>
</g>
<!-- instr&#45;&gt;exe -->
<g id="edge6" class="edge"><title>instr&#45;&gt;exe</title>
<path fill="none" stroke="black" d="M430.118,-68.5C438.609,-68.5 447.379,-68.5 455.81,-68.5"/>
<polygon fill="black" stroke="black" points="455.886,-72.0001 465.886,-68.5 455.886,-65.0001 455.886,-72.0001"/>
</g>
</g>
</svg>
